<mxfile host="app.diagrams.net" modified="2024-04-08T13:00:06.148Z" agent="Mozilla/5.0 (Windows NT 10.0; Win64; x64) AppleWebKit/537.36 (KHTML, like Gecko) Chrome/121.0.0.0 Safari/537.36" version="24.2.2" etag="Uud3FmSqqkm0FU_8i7Xf" type="github">
  <diagram name="Trang-1" id="JZGiEQTH0N-DpeAh2QvO">
    <mxGraphModel>
      <root>
        <mxCell id="0" />
        <mxCell id="1" parent="0" />
      </root>
    </mxGraphModel>
  </diagram>
</mxfile>
